<svg width="27" height="25" viewBox="0 0 27 25" fill="none" xmlns="http://www.w3.org/2000/svg">
<path d="M14.85 19.7368V22.3684H20.25V25H6.75004V22.3684H12.15V19.7368H1.33925C1.16198 19.7358 0.986656 19.7007 0.823334 19.6335C0.660013 19.5663 0.511902 19.4683 0.387493 19.3453C0.263083 19.2222 0.16482 19.0764 0.0983357 18.9162C0.0318514 18.756 -0.00154684 18.5846 5.50069e-05 18.4118V1.325C5.50069e-05 0.593421 0.614304 0 1.33925 0H25.6608C26.4006 0 27 0.590789 27 1.325V18.4118C27 19.1434 26.3857 19.7368 25.6608 19.7368H14.85Z" fill="url(#paint0_linear_1_243)"/>
<defs>
<linearGradient id="paint0_linear_1_243" x1="0" y1="12.5" x2="27" y2="12.5" gradientUnits="userSpaceOnUse">
<stop stop-color="#FF512F"/>
<stop offset="1" stop-color="#F09819"/>
</linearGradient>
</defs>
</svg>
