<svg width="27" height="24" viewBox="0 0 27 24" fill="none" xmlns="http://www.w3.org/2000/svg">
<path d="M0 1.324C0.00247056 0.973838 0.144315 0.63869 0.394892 0.390957C0.645469 0.143224 0.984663 0.00279287 1.3392 0H25.6608C26.4006 0 27 0.593333 27 1.324V22.676C26.9975 23.0262 26.8557 23.3613 26.6051 23.609C26.3545 23.8568 26.0153 23.9972 25.6608 24H1.3392C0.983898 23.9996 0.643271 23.86 0.392161 23.6117C0.141051 23.3635 -1.80164e-07 23.0269 0 22.676V1.324ZM2.7 2.66667V5.33333H5.4V2.66667H2.7ZM21.6 2.66667V5.33333H24.3V2.66667H21.6ZM2.7 8V10.6667H5.4V8H2.7ZM21.6 8V10.6667H24.3V8H21.6ZM2.7 13.3333V16H5.4V13.3333H2.7ZM21.6 13.3333V16H24.3V13.3333H21.6ZM2.7 18.6667V21.3333H5.4V18.6667H2.7ZM21.6 18.6667V21.3333H24.3V18.6667H21.6Z" fill="url(#paint0_linear_1_267)"/>
<defs>
<linearGradient id="paint0_linear_1_267" x1="0" y1="12" x2="27" y2="12" gradientUnits="userSpaceOnUse">
<stop stop-color="#FFB75E"/>
<stop offset="1" stop-color="#ED8F03"/>
</linearGradient>
</defs>
</svg>
