<svg width="19" height="27" viewBox="0 0 19 27" fill="none" xmlns="http://www.w3.org/2000/svg">
<path d="M1.35714 0H17.6429C18.0028 0 18.348 0.142232 18.6025 0.395406C18.857 0.64858 19 0.991958 19 1.35V25.65C19 26.008 18.857 26.3514 18.6025 26.6046C18.348 26.8578 18.0028 27 17.6429 27H1.35714C0.997206 27 0.652012 26.8578 0.397498 26.6046C0.142985 26.3514 0 26.008 0 25.65V1.35C0 0.991958 0.142985 0.64858 0.397498 0.395406C0.652012 0.142232 0.997206 0 1.35714 0ZM9.5 20.25C9.14006 20.25 8.79487 20.3922 8.54035 20.6454C8.28584 20.8986 8.14286 21.242 8.14286 21.6C8.14286 21.958 8.28584 22.3014 8.54035 22.5546C8.79487 22.8078 9.14006 22.95 9.5 22.95C9.85994 22.95 10.2051 22.8078 10.4596 22.5546C10.7142 22.3014 10.8571 21.958 10.8571 21.6C10.8571 21.242 10.7142 20.8986 10.4596 20.6454C10.2051 20.3922 9.85994 20.25 9.5 20.25Z" fill="url(#paint0_linear_1_219)"/>
<defs>
<linearGradient id="paint0_linear_1_219" x1="0" y1="13.5" x2="19" y2="13.5" gradientUnits="userSpaceOnUse">
<stop stop-color="#0052D4"/>
<stop offset="0.5" stop-color="#4364F7"/>
<stop offset="1" stop-color="#6FB1FC"/>
</linearGradient>
</defs>
</svg>
