<svg width="29" height="21" viewBox="0 0 29 21" fill="none" xmlns="http://www.w3.org/2000/svg">
<path d="M21.0909 0C23.1885 0 25.2002 0.829685 26.6835 2.30653C28.1667 3.78338 29 5.78642 29 7.875V13.125C29 15.2136 28.1667 17.2166 26.6835 18.6935C25.2002 20.1703 23.1885 21 21.0909 21H7.90909C5.81147 21 3.79976 20.1703 2.31652 18.6935C0.833277 17.2166 0 15.2136 0 13.125V7.875C0 5.78642 0.833277 3.78338 2.31652 2.30653C3.79976 0.829685 5.81147 0 7.90909 0H21.0909ZM11.8636 6.5625H9.22727V9.1875H6.59091V11.8125H9.22596L9.22727 14.4375H11.8636L11.8623 11.8125H14.5V9.1875H11.8636V6.5625ZM22.4091 11.8125H19.7727V14.4375H22.4091V11.8125ZM19.7727 6.5625H17.1364V9.1875H19.7727V6.5625Z" fill="url(#paint0_linear_1_261)"/>
<defs>
<linearGradient id="paint0_linear_1_261" x1="0" y1="10.5" x2="29" y2="10.5" gradientUnits="userSpaceOnUse">
<stop stop-color="#D38312"/>
<stop offset="1" stop-color="#A83279"/>
</linearGradient>
</defs>
</svg>
