<svg width="24" height="25" viewBox="0 0 24 25" fill="none" xmlns="http://www.w3.org/2000/svg">
<path d="M5.33333 1.31579V10.5263L12 7.23684L18.6667 10.5263V1.31579H22.6667C23.0203 1.31579 23.3594 1.45442 23.6095 1.70118C23.8595 1.94793 24 2.28261 24 2.63158V23.6842C24 24.0332 23.8595 24.3679 23.6095 24.6146C23.3594 24.8614 23.0203 25 22.6667 25H1.33333C0.979711 25 0.640573 24.8614 0.390524 24.6146C0.140476 24.3679 0 24.0332 0 23.6842V2.63158C0 2.28261 0.140476 1.94793 0.390524 1.70118C0.640573 1.45442 0.979711 1.31579 1.33333 1.31579H5.33333ZM12 6.57895L6 0H18L12 6.57895ZM13.3333 10.8368L12 10.1789L10.6667 10.8368V22.3684H13.3333V10.8368ZM16 14.4737V17.1053H21.3333V14.4737H16Z" fill="url(#paint0_linear_1_237)"/>
<defs>
<linearGradient id="paint0_linear_1_237" x1="0" y1="12.5" x2="24" y2="12.5" gradientUnits="userSpaceOnUse">
<stop stop-color="#02AAB0"/>
<stop offset="1" stop-color="#00CDAC"/>
</linearGradient>
</defs>
</svg>
