<svg width="30" height="27" viewBox="0 0 30 27" fill="none" xmlns="http://www.w3.org/2000/svg">
<path d="M18.4076 3.93501L21.9385 0.397921C22.0644 0.271774 22.2138 0.1717 22.3783 0.103422C22.5428 0.0351438 22.7191 0 22.8971 0C23.0752 0 23.2515 0.0351438 23.416 0.103422C23.5805 0.1717 23.7299 0.271774 23.8557 0.397921L29.6033 6.15467C29.8573 6.4091 30 6.75414 30 7.1139C30 7.47367 29.8573 7.81871 29.6033 8.07314L24.4844 13.199V25.6432C24.4844 26.0031 24.3417 26.3482 24.0876 26.6026C23.8335 26.8571 23.4889 27 23.1295 27H6.8705C6.51115 27 6.16652 26.8571 5.91243 26.6026C5.65833 26.3482 5.51558 26.0031 5.51558 25.6432V13.199L0.396701 8.07314C0.142694 7.81871 0 7.47367 0 7.1139C0 6.75414 0.142694 6.4091 0.396701 6.15467L6.14426 0.397921C6.2701 0.271774 6.41953 0.1717 6.58401 0.103422C6.7485 0.0351438 6.92481 0 7.10287 0C7.28092 0 7.45723 0.0351438 7.62172 0.103422C7.7862 0.1717 7.93563 0.271774 8.06147 0.397921L11.5924 3.93501H18.4076Z" fill="url(#paint0_linear_1_213)"/>
<defs>
<linearGradient id="paint0_linear_1_213" x1="0" y1="13.5" x2="30" y2="13.5" gradientUnits="userSpaceOnUse">
<stop stop-color="#DA22FF"/>
<stop offset="1" stop-color="#9733EE"/>
</linearGradient>
</defs>
</svg>
