<svg width="27" height="27" viewBox="0 0 27 27" fill="none" xmlns="http://www.w3.org/2000/svg">
<path d="M13.9934 15.3441L16.3895 16.7278C14.9591 19.8963 14.8086 23.4951 15.9697 26.7718C15.1551 26.9242 14.3281 27.0006 13.4993 27C11.5865 27.003 9.695 26.598 7.9511 25.812L13.9934 15.3441ZM18.7411 18.0873L24.4567 21.3867C22.9679 23.4533 20.9265 25.0582 18.567 26.0172C17.6683 23.5906 17.6721 20.9217 18.5778 18.4977L18.7411 18.0873ZM9.26053 12.6117L11.6567 13.9941L5.61437 24.4566C3.37928 22.8467 1.68859 20.5931 0.768111 17.9968C4.02998 17.3945 6.9549 15.6096 8.98244 12.9843L9.26053 12.6117ZM26.8717 11.6316C26.9568 12.2431 27 12.8668 27 13.5C27.003 15.4129 26.598 17.3045 25.812 19.0485L20.0937 15.7477C21.7037 13.6227 24.0439 12.1697 26.6625 11.6694L26.8717 11.6316ZM1.18929 7.95285L6.90625 11.2536C5.25175 13.4371 2.82846 14.9092 0.128244 15.3711C0.0427723 14.7511 -7.60724e-05 14.1259 1.01384e-07 13.5C1.01384e-07 11.5222 0.425229 9.6444 1.18794 7.9515L1.18929 7.95285ZM21.3856 2.54206C23.6207 4.15197 25.3114 6.40555 26.2319 9.0018C22.9694 9.6054 20.0442 11.3911 18.0162 14.017L17.7395 14.3896L15.3433 13.0059L21.3856 2.54341V2.54206ZM13.4993 9.53694e-06C15.477 9.53694e-06 17.3547 0.425259 19.0475 1.18801L13.0052 11.6559L10.6091 10.2735C12.0403 7.10428 12.1907 3.5044 11.0289 0.226809C11.8436 0.0749461 12.6706 -0.000979408 13.4993 9.53694e-06ZM8.43302 0.985509C9.33033 3.41253 9.32554 6.08122 8.41952 8.505L8.25753 8.91405L2.54192 5.6133C3.97317 3.62742 5.91569 2.06643 8.16304 1.09621L8.43302 0.984159V0.985509Z" fill="url(#paint0_linear_1_255)"/>
<defs>
<linearGradient id="paint0_linear_1_255" x1="0" y1="13.5" x2="27" y2="13.5" gradientUnits="userSpaceOnUse">
<stop stop-color="#00D2FF"/>
<stop offset="1" stop-color="#3A7BD5"/>
</linearGradient>
</defs>
</svg>
