<svg width="25" height="25" viewBox="0 0 25 25" fill="none" xmlns="http://www.w3.org/2000/svg">
<path d="M5.59211 0C6.32647 0 7.05365 0.144644 7.73211 0.425674C8.41058 0.706703 9.02705 1.11861 9.54632 1.63789C10.0656 2.15716 10.4775 2.77363 10.7585 3.4521C11.0396 4.13056 11.1842 4.85774 11.1842 5.5921V11.1842H5.59211C4.10899 11.1842 2.68661 10.595 1.63789 9.54632C0.589169 8.4976 2.39104e-06 7.07522 2.39104e-06 5.5921C2.39104e-06 4.10899 0.589169 2.68661 1.63789 1.63789C2.68661 0.589167 4.10899 0 5.59211 0ZM5.59211 13.8158H11.1842V19.4079C11.1842 20.5139 10.8562 21.5951 10.2418 22.5147C9.6273 23.4343 8.75394 24.1511 7.73211 24.5743C6.71029 24.9976 5.5859 25.1083 4.50114 24.8925C3.41638 24.6768 2.41996 24.1442 1.63789 23.3621C0.855822 22.58 0.323226 21.5836 0.107453 20.4989C-0.108319 19.4141 0.00242297 18.2897 0.425676 17.2679C0.848929 16.2461 1.56568 15.3727 2.4853 14.7582C3.40492 14.1438 4.48609 13.8158 5.59211 13.8158ZM19.4079 0C20.891 0 22.3134 0.589167 23.3621 1.63789C24.4108 2.68661 25 4.10899 25 5.5921C25 7.07522 24.4108 8.4976 23.3621 9.54632C22.3134 10.595 20.891 11.1842 19.4079 11.1842H13.8158V5.5921C13.8158 4.10899 14.405 2.68661 15.4537 1.63789C16.5024 0.589167 17.9248 0 19.4079 0ZM13.8158 13.8158H19.4079C20.5139 13.8158 21.5951 14.1438 22.5147 14.7582C23.4343 15.3727 24.1511 16.2461 24.5743 17.2679C24.9976 18.2897 25.1083 19.4141 24.8925 20.4989C24.6768 21.5836 24.1442 22.58 23.3621 23.3621C22.58 24.1442 21.5836 24.6768 20.4989 24.8925C19.4141 25.1083 18.2897 24.9976 17.2679 24.5743C16.2461 24.1511 15.3727 23.4343 14.7582 22.5147C14.1438 21.5951 13.8158 20.5139 13.8158 19.4079V13.8158Z" fill="url(#paint0_linear_1_273)"/>
<defs>
<linearGradient id="paint0_linear_1_273" x1="0" y1="12.5" x2="25" y2="12.5" gradientUnits="userSpaceOnUse">
<stop stop-color="#6A3093"/>
<stop offset="1" stop-color="#A044FF"/>
</linearGradient>
</defs>
</svg>
