<svg width="28" height="28" viewBox="0 0 28 28" fill="none" xmlns="http://www.w3.org/2000/svg">
<path d="M12.7701 0L26.0964 1.90483L28 15.2319L15.6254 27.6059C15.373 27.8582 15.0306 28 14.6736 28C14.3167 28 13.9743 27.8582 13.7219 27.6059L0.394159 14.2788C0.141779 14.0264 0 13.684 0 13.3271C0 12.9701 0.141779 12.6278 0.394159 12.3753L12.7701 0ZM16.5772 11.4236C16.8273 11.6735 17.1241 11.8718 17.4508 12.0071C17.7775 12.1423 18.1277 12.2119 18.4813 12.2118C18.8349 12.2118 19.185 12.1421 19.5116 12.0067C19.8383 11.8713 20.1351 11.673 20.385 11.4229C20.635 11.1729 20.8333 10.876 20.9686 10.5493C21.1038 10.2226 21.1734 9.87252 21.1733 9.51895C21.1733 9.16538 21.1036 8.81528 20.9682 8.48865C20.8328 8.16201 20.6344 7.86524 20.3844 7.61527C20.1343 7.3653 19.8374 7.16703 19.5107 7.03179C19.184 6.89654 18.8339 6.82696 18.4803 6.82702C17.7662 6.82715 17.0814 7.11093 16.5765 7.61594C16.0717 8.12096 15.7881 8.80583 15.7883 9.5199C15.7884 10.234 16.0722 10.9187 16.5772 11.4236Z" fill="url(#paint0_linear_1_225)"/>
<defs>
<linearGradient id="paint0_linear_1_225" x1="0" y1="14" x2="28" y2="14" gradientUnits="userSpaceOnUse">
<stop stop-color="#4568DC"/>
<stop offset="1" stop-color="#B06AB3"/>
</linearGradient>
</defs>
</svg>
