<svg width="27" height="24" viewBox="0 0 27 24" fill="none" xmlns="http://www.w3.org/2000/svg">
<path d="M25.65 0C26.008 0 26.3514 0.140476 26.6046 0.390524C26.8578 0.640573 27 0.979711 27 1.33333V10.6667C27 11.0203 26.8578 11.3594 26.6046 11.6095C26.3514 11.8595 26.008 12 25.65 12H22.9487L22.95 22.6667C22.95 23.0203 22.8078 23.3594 22.5546 23.6095C22.3014 23.8595 21.958 24 21.6 24H5.4C5.04196 24 4.69858 23.8595 4.44541 23.6095C4.19223 23.3594 4.05 23.0203 4.05 22.6667L4.04865 11.9987L1.35 12C0.991958 12 0.64858 11.8595 0.395406 11.6095C0.142232 11.3594 0 11.0203 0 10.6667V1.33333C0 0.979711 0.142232 0.640573 0.395406 0.390524C0.64858 0.140476 0.991958 0 1.35 0H9.45C9.45 1.06087 9.87669 2.07828 10.6362 2.82843C11.3957 3.57857 12.4259 4 13.5 4C14.5741 4 15.6043 3.57857 16.3638 2.82843C17.1233 2.07828 17.55 1.06087 17.55 0H25.65Z" fill="url(#paint0_linear_1_249)"/>
<defs>
<linearGradient id="paint0_linear_1_249" x1="0" y1="12" x2="27" y2="12" gradientUnits="userSpaceOnUse">
<stop stop-color="#F857A6"/>
<stop offset="1" stop-color="#FF5858"/>
</linearGradient>
</defs>
</svg>
